<svg width="16" height="16" viewBox="0 0 16 16" fill="none" xmlns="http://www.w3.org/2000/svg">
<path d="M1.83691 15.4688V2.9707H-7.62939e-06V0H6.76757V2.9707H4.93066V15.4688H1.83691Z" fill="#0085DB"/>
<path d="M7.9889 15.4688V0H12.2428C13.3561 0 14.194 0.310547 14.7565 0.931641C15.319 1.54688 15.6002 2.44922 15.6002 3.63867V10.8809C15.6002 12.3457 15.3424 13.4766 14.8268 14.2734C14.317 15.0703 13.4205 15.4688 12.1373 15.4688H7.9889ZM11.1002 12.7354H11.6364C12.2047 12.7354 12.4889 12.46 12.4889 11.9092V3.92871C12.4889 3.41309 12.4186 3.08203 12.278 2.93555C12.1432 2.7832 11.8649 2.70703 11.443 2.70703H11.1002V12.7354Z" fill="#4F5F6B"/>
</svg>
